<svg width="1200" height="800" viewBox="0 0 1200 800" fill="none" xmlns="http://www.w3.org/2000/svg">
  <rect width="1200" height="800" rx="32" fill="#F8FAFC"/>
  <rect x="80" y="80" width="1040" height="640" rx="28" fill="#E2E8F0"/>
  <rect x="140" y="140" width="420" height="520" rx="24" fill="#FFFFFF"/>
  <rect x="620" y="140" width="440" height="520" rx="24" fill="#FFFFFF"/>
  <circle cx="350" cy="310" r="120" fill="#DBEAFE"/>
  <path d="M350 220C306.5 220 271 255.5 271 299C271 360.25 350 449 350 449C350 449 429 360.25 429 299C429 255.5 393.5 220 350 220ZM350 336.5C329.5 336.5 312.5 319.5 312.5 299C312.5 278.5 329.5 261.5 350 261.5C370.5 261.5 387.5 278.5 387.5 299C387.5 319.5 370.5 336.5 350 336.5Z" fill="#2563EB"/>
  <rect x="680" y="230" width="320" height="32" rx="10" fill="#CBD5E1"/>
  <rect x="680" y="290" width="260" height="26" rx="10" fill="#E2E8F0"/>
  <rect x="680" y="340" width="300" height="26" rx="10" fill="#E2E8F0"/>
  <rect x="680" y="470" width="180" height="58" rx="14" fill="#2563EB"/>
  <text x="710" y="507" fill="#FFFFFF" font-family="Arial, sans-serif" font-size="22" font-weight="700">Step 1</text>
</svg>
